<?xml version="1.0" encoding="UTF-8" standalone="no"?>
<!-- Created with Inkscape (http://www.inkscape.org/) -->

<svg
   width="3840"
   height="2160"
   viewBox="0 0 3840 2160"
   id="svg2"
   version="1.1"
   inkscape:version="1.1.2 (b8e25be833, 2022-02-05)"
   sodipodi:docname="dinsdagavond.svg"
   inkscape:export-filename="C:\Users\rem\desktop\dinsdagavond.png"
   inkscape:export-xdpi="90"
   inkscape:export-ydpi="90"
   xmlns:inkscape="http://www.inkscape.org/namespaces/inkscape"
   xmlns:sodipodi="http://sodipodi.sourceforge.net/DTD/sodipodi-0.dtd"
   xmlns:xlink="http://www.w3.org/1999/xlink"
   xmlns="http://www.w3.org/2000/svg"
   xmlns:svg="http://www.w3.org/2000/svg"
   xmlns:rdf="http://www.w3.org/1999/02/22-rdf-syntax-ns#"
   xmlns:cc="http://creativecommons.org/ns#"
   xmlns:dc="http://purl.org/dc/elements/1.1/">
  <defs
     id="defs4">
    <linearGradient
       inkscape:collect="always"
       id="linearGradient5205">
      <stop
         style="stop-color:#5b5b5b;stop-opacity:1"
         offset="0"
         id="stop5207" />
      <stop
         style="stop-color:#171717;stop-opacity:1"
         offset="1"
         id="stop5209" />
    </linearGradient>
    <linearGradient
       inkscape:collect="always"
       xlink:href="#linearGradient5205"
       id="linearGradient5920"
       x1="1795.5715"
       y1="3.3241878"
       x2="1806.6324"
       y2="2207.4771"
       gradientUnits="userSpaceOnUse"
       gradientTransform="matrix(1.1233363,0,0,1.2356441,-118.50343,-236.47562)" />
    <filter
       style="color-interpolation-filters:sRGB;"
       inkscape:label="Roughen"
       id="filter5970"
       x="-0.00067665342"
       y="-0.0010794714"
       width="1.0013533"
       height="1.0021589">
      <feTurbulence
         type="turbulence"
         numOctaves="5"
         seed="1"
         baseFrequency="9.99 9.99"
         result="turbulence"
         id="feTurbulence5972" />
      <feDisplacementMap
         in="SourceGraphic"
         in2="turbulence"
         scale="50"
         yChannelSelector="G"
         xChannelSelector="R"
         id="feDisplacementMap5974"
         result="fbSourceGraphic" />
      <feColorMatrix
         result="fbSourceGraphicAlpha"
         in="fbSourceGraphic"
         values="0 0 0 -1 0 0 0 0 -1 0 0 0 0 -1 0 0 0 0 1 0"
         id="feColorMatrix5976" />
      <feTurbulence
         id="feTurbulence5978"
         type="turbulence"
         numOctaves="5"
         seed="1"
         baseFrequency="9.99 9.99"
         result="turbulence"
         in="fbSourceGraphic" />
      <feDisplacementMap
         id="feDisplacementMap5980"
         in2="turbulence"
         in="fbSourceGraphic"
         scale="50"
         yChannelSelector="G"
         xChannelSelector="R" />
    </filter>
    <clipPath
       clipPathUnits="userSpaceOnUse"
       id="clipPath6012">
      <g
         id="g6014">
        <path
           id="path6016"
           d="m 2766.3139,21.959995 c 45.9494,63.285468 91.2336,127.037125 136.9813,190.439145 8.2867,9.77059 20.4444,15.50086 31.3521,22.12466 15.3433,7.78928 32.6424,16.91886 50.5464,12.68429 11.0892,-2.97197 14.92,-14.39366 18.408,-23.69806 2.1977,20.33759 -0.7258,43.43349 -16.8151,58.27391 -17.4605,16.14187 -43.389,18.49226 -66.4141,17.2685 3.0042,54.91345 6.5527,109.78806 9.819,164.68208 44.4574,16.29727 88.8141,32.90534 133.211,49.358 5.4034,2.87485 11.1093,-0.1554 16.3111,-2.03958 20.3437,-8.50799 40.4251,-17.69584 59.9017,-27.95206 59.0548,-31.40964 115.7103,-70.35603 155.8329,-123.36587 12.5811,-16.25842 21.7146,-34.57586 30.5456,-52.87386 15.4845,47.80403 34.195,94.7728 58.6919,139.0027 16.4523,29.66143 35.3643,58.27392 58.5104,83.52594 23.0251,25.09664 50.9094,47.26015 84.1163,58.37104 11.8957,3.63241 24.9002,7.75043 37.2999,3.82665 12.8231,-4.19572 25.1421,-12.08212 31.5336,-23.91172 4.3752,-7.67274 4.7784,-16.62749 5.6857,-25.13549 6.4721,19.46349 9.7383,40.26727 6.835,60.64372 -2.2582,16.41382 -10.444,32.45857 -24.2148,42.67593 -14.2344,10.58643 -32.4811,15.65626 -50.3447,15.32604 -18.0451,0.21367 -37.4209,-0.83526 -52.5626,-11.38284 0.6049,11.55766 0.8266,23.13474 1.25,34.71183 0.3226,6.83747 1.0082,13.67494 1.5525,20.51242 2.4195,78.14531 6.4317,156.21293 9.577,234.33882 -0.3831,9.20728 6.9358,15.9282 11.6739,23.19282 23.9525,34.14848 48.3083,68.04449 71.8778,102.42609 -21.9565,27.4277 -42.0581,57.0891 -52.8448,90.4023 -6.1696,17.9678 -4.4962,37.0816 -4.2341,55.6905 2.1977,41.1996 10.7464,83.3317 33.2877,118.9759 17.1579,27.4469 45.022,49.1831 77.6443,56.7394 16.2305,3.4187 32.6222,6.0798 48.8527,9.5374 4.0324,0.7964 7.9237,2.4281 11.1698,5.031 11.1698,8.6051 21.392,18.3757 33.1063,26.3786 43.2477,27.6025 87.5841,53.6509 130.4286,81.836 l -0.2621,2.0008 c -1.6734,13.0727 -0.1814,26.3009 -0.6048,39.4708 0.8266,80.9425 1.1694,161.885 2.8831,242.808 0.02,57.5552 0.4234,115.1298 1.1694,172.6657 1.2299,32.6527 0.121,65.3444 0.7864,98.0167 -0.4234,37.9557 -0.5847,75.9697 0.7863,113.9254 0.02,8.3914 -0.1008,16.8218 -0.2016,25.252 l -1644.8248,0 c 23.4285,-52.6213 52.7845,-102.5426 83.5316,-151.4539 87.7456,-135.7199 196.0967,-259.9405 325.2149,-360.832 50.0423,-38.7716 102.9073,-74.105 158.1918,-105.5923 17.3193,-7.4785 33.2876,-17.4045 50.1633,-25.6794 20.2024,-9.8483 40.3445,-19.8326 61.2525,-28.2435 14.4966,-4.2345 28.0858,-10.7806 42.28,-15.831 23.7912,-9.2849 47.8649,-17.929 72.3618,-25.2714 4.4155,-1.4569 8.831,-3.1857 12.6618,-5.8468 -6.8954,-12.3736 -17.1176,-22.6298 -25.5051,-34.0515 -30.3843,-38.0334 -61.0509,-75.8531 -91.2738,-114.0226 -4.9801,-5.2253 -8.3875,-14.5491 -16.7346,-14.8016 -18.1055,0.8548 -36.2314,1.8648 -54.3772,1.6511 -14.8393,-0.2137 -29.5778,2.1367 -44.4171,1.8259 -6.0083,-0.233 -11.8957,0.9907 -17.3999,3.2051 30.727,20.629 62.5428,40.1896 89.8424,65.1308 10.1617,8.3138 19.7588,17.2685 28.2269,27.214 12.5408,13.6943 24.4163,28.3987 31.5335,45.473 2.1977,5.5943 5.0204,11.4023 4.4558,17.5599 -11.8351,7.7116 -26.5736,9.421 -39.558,14.7238 -21.6944,8.3526 -44.3567,14.5103 -65.164,24.8441 -31.0698,11.9074 -62.6234,22.8629 -92.7658,36.8292 -56.0507,22.3189 -111.7182,45.6867 -166.1963,71.3467 -134.2393,61.576 -265.6357,130.1257 -386.7495,213.5544 -33.1263,23.5039 -66.3535,47.0271 -96.9797,73.5612 -50.4658,42.6759 -98.3105,89.0813 -135.7717,143.043 -21.8557,32.1283 -40.7274,66.607 -51.7158,103.6887 -4.1735,12.3929 -5.847,25.3297 -8.9519,37.9751 l -1891.24602,0 0,-169.1886 1.9154004,0.8936 C 102.96,2083.7879 223.34794,2114.8868 345.83274,2119.7818 c 18.69027,4.1958 38.04589,2.0202 57.0386,1.6511 l -0.24194,-1.7288 c -3.58886,-22.8045 -9.71814,-45.1234 -13.97234,-67.8115 -9.27457,-40.306 -16.63375,-81.02 -26.89625,-121.0931 -3.62919,34.6535 -5.20183,69.5013 -8.52858,104.1937 -8.28663,-30.5938 -15.46433,-61.4595 -23.97274,-91.995 -1.47183,4.6036 -2.80253,9.2849 -4.31469,13.908 -7.70193,-6.8763 -15.02078,-14.1217 -22.54124,-21.1534 -2.60091,7.1094 -5.12118,14.2771 -7.62128,21.4447 -9.43587,-4.2733 -18.8314,-8.6244 -28.42856,-12.5676 -0.42341,26.3591 0.50405,52.7379 -0.48389,79.0776 -17.50072,-23.5426 -31.39241,-49.3969 -48.65117,-73.1143 -1.85491,8.7994 -3.68966,17.5987 -5.68572,26.3981 -6.87527,-12.8591 -11.27061,-26.7478 -17.68216,-39.8011 -0.44357,13.4224 0.30243,26.8837 -0.76616,40.3256 -15.80709,-6.0217 -22.23881,-22.4355 -27.23901,-36.7515 -8.50841,-26.1844 -11.1698,-53.6897 -13.58926,-80.8841 -18.46849,3.71 -36.59422,8.7605 -54.982068,12.8008 -2.762202,-7.5368 -4.717933,-15.3261 -6.451876,-23.1153 80.466974,-19.1527 160.893624,-38.4997 241.481554,-57.2056 -1.37102,-9.4403 -3.75015,-18.7059 -5.88733,-27.9715 -1.02826,-5.6137 -2.15734,-11.1692 -3.18561,-16.7246 -1.16941,0.097 -3.52837,0.2914 -4.71794,0.3885 -33.26748,2.5835 -68.89391,-3.3411 -95.70952,-23.5621 -15.46433,-11.5382 -27.05755,-28.5542 -29.07376,-47.5515 -2.39928,-19.4246 4.81874,-39.0823 17.46039,-54.0782 18.50881,-22.4743 46.07041,-36.7903 74.74093,-43.2781 -2.5001,-6.5849 -6.04863,-13.4612 -4.27437,-20.6095 1.65329,-7.1289 5.50426,-14.0441 11.59321,-18.5311 4.23404,-3.1468 9.83911,-1.6317 14.7385,-1.554 -4.91955,5.0505 -11.47224,9.6929 -12.76261,16.9772 -1.41135,7.2259 1.57264,14.2187 4.37518,20.7843 20.40405,-2.4863 41.37264,-2.1367 61.31297,3.0691 24.41631,5.7303 47.885,18.9584 61.59524,39.7234 13.34731,19.7742 13.42796,46.4249 2.13718,67.0927 -15.3837,28.8844 -46.05026,46.7162 -77.2612,56.2926 3.14529,14.4324 5.96799,28.9233 9.45603,43.2975 80.60811,-18.6282 160.99442,-38.3054 241.58237,-56.9919 4.53647,6.6044 4.75825,15.0735 7.05673,22.552 -7.62127,2.0396 -15.26271,3.9432 -22.90415,5.8275 -2.11702,25.8153 -3.28643,51.6889 -5.48409,77.5042 -5.36312,-8.1777 -10.30284,-16.6081 -16.00871,-24.5527 -6.99626,19.6188 -12.35938,39.7428 -19.4766,59.3228 -6.18976,-10.5864 -11.69403,-21.5419 -18.18622,-31.9535 -2.64124,32.2254 -4.5768,64.4897 -7.25836,96.6958 -9.51652,-22.5325 -17.52087,-45.609 -26.29139,-68.4135 -0.4234,-0.641 -1.25005,-1.9425 -1.65329,-2.5836 -0.66535,0.9907 -1.97588,2.9526 -2.62107,3.9433 -5.82686,15.7922 -12.8231,31.1765 -18.99271,46.8717 -2.41945,-3.1469 -4.79858,-6.3325 -7.13738,-9.4987 -2.19768,-3.0886 -4.43567,-6.177 -6.79463,-9.1102 -0.96779,19.7743 -0.62503,39.6069 -0.10082,59.4006 -0.20162,0.6798 -0.5847,2.0201 -0.76615,2.7 -6.20994,-10.8584 -11.41176,-22.28 -18.60963,-32.5946 -1.43151,41.763 0.0806,83.6036 -0.76616,125.3861 -12.37954,-27.3305 -22.62188,-55.5739 -35.7071,-82.5741 1.14925,11.1109 4.19373,21.9304 6.35107,32.8859 8.62939,39.4126 16.51276,79 25.74701,118.3155 28.18662,-5.808 57.11925,-13.5002 80.30568,-30.7299 57.09908,-40.4809 108.7544,-87.8576 167.88986,-125.7357 16.85552,-10.2173 34.33607,-21.0174 54.43769,-23.8534 6.55268,-0.9906 12.44002,-4.118 18.22654,-7.0512 21.5533,-11.0137 43.53,-21.2893 64.94215,-32.5362 -19.87983,-10.8001 -39.23546,-23.3289 -53.77234,-40.5198 -9.75846,-11.7908 -17.15795,-26.2038 -16.99665,-41.5881 -1.02828,-16.6664 6.1696,-32.9054 17.09746,-45.5314 9.91976,-11.2663 25.94863,-16.9188 41.11053,-14.8404 18.50882,2.4669 35.48531,11.1303 50.74803,21.2117 24.3155,16.2973 45.86879,36.2852 64.8615,58.1574 19.75886,-13.2088 39.3766,-26.6507 58.71205,-40.4615 -14.33526,-24.8636 -27.42046,-50.4652 -37.78379,-77.1353 -10.9077,-29.4672 -20.18226,-60.3135 -18.87172,-91.9174 -0.18146,-26.1261 10.26251,-53.0292 31.31174,-70.084 12.86343,-11.7908 31.75532,-13.4614 48.65115,-12.8981 19.23465,0.097 36.89665,8.8188 52.46185,18.9974 7.0365,6.0216 13.69,12.4512 20.0612,19.1332 31.836,40.7724 46.8366,90.888 56.4742,140.343 22.1379,-7.6727 44.8001,-13.9274 67.7043,-19.1332 0.9677,-0.2525 2.9235,-0.7575 3.9114,-1.0102 -2.238,-23.7757 -4.5365,-47.5514 -6.4519,-71.366 -20.283,-0.3497 -40.5459,-1.69 -60.829,-2.0979 0.625,-14.1605 1.2097,-28.3016 1.5323,-42.4622 18.4887,0.078 36.937,0.9129 55.3853,1.787 -1.9961,-22.8433 -4.1534,-45.6867 -6.2906,-68.5107 13.1457,-1.0878 26.2511,-2.5057 39.3766,-3.7683 1.9759,24.4945 4.6373,48.9306 6.714,73.4251 19.8799,0.9323 39.8,1.0877 59.7,1.9618 -0.3831,14.2384 -1.0081,28.4766 -1.1896,42.7342 -18.2063,-0.3108 -36.3925,-1.6316 -54.6192,-1.3985 1.855,21.6002 3.6897,43.2393 6.0083,64.82 66.2729,-8.7216 133.4733,-14.2382 200.2905,-8.8187 20.2225,-0.3691 40.3645,-2.8944 60.4863,-4.8951 56.9579,-6.7209 113.6134,-15.8699 169.4625,-28.5542 78.8339,-17.9095 156.5386,-41.9378 229.3641,-76.3971 16.3112,-8.139 33.086,-15.6368 48.2479,-25.7183 -2.3993,-25.6404 -5.3429,-51.2227 -9.5971,-76.6301 -26.3922,12.8396 -52.2602,26.7089 -78.7129,39.4709 4.5164,-10.6253 9.9601,-20.8427 14.8999,-31.2737 2.7218,-6.0022 6.7946,-11.344 11.7545,-15.8116 13.0852,-12.0239 28.1261,-21.8916 43.5299,-30.9629 -3.1654,-11.1498 -7.3188,-22.1053 -13.7304,-31.9342 9.0931,-7.6921 20.2831,-14.5295 32.9852,-12.5483 1.8348,10.198 3.8711,20.3765 6.0083,30.555 39.538,-20.2987 80.6082,-37.7615 122.2631,-53.6315 -1.1493,-11.9072 -2.2784,-23.8145 -3.9115,-35.6441 -14.2949,4.7007 -28.3479,10.0037 -42.542,14.9569 6.2503,-13.3253 11.8956,-27.0002 19.033,-39.8788 6.9963,-5.7302 16.4321,-7.6144 24.9002,-10.5669 44.1148,-12.3153 89.3787,-20.3571 134.5821,-27.9327 -1.1291,-15.7534 -1.9759,-31.5456 -3.8308,-47.2407 -15.3837,-4.1568 -30.5456,-9.1102 -45.8285,-13.5584 -3.4074,-41.763 -5.1816,-83.6231 -8.2059,-125.3861 -6.6132,-97.5311 -12.2989,-195.10081 -18.8718,-292.61249 -32.1989,-13.5584 -62.9461,-35.35284 -77.7451,-66.9373 -8.6898,-17.5793 -8.8511,-37.76149 -5.5849,-56.62282 4.1131,7.45906 7.7624,15.2872 13.5086,21.77502 8.7504,10.23679 22.0372,17.5016 36.07,17.03541 18.9525,-0.0776 35.9088,-10.04254 50.7884,-20.41529 12.3392,-9.34326 25.0816,-18.90017 33.6304,-31.77871 23.2469,-32.1672 44.1146,-65.88837 62.805,-100.6779 35.8482,-67.90852 64.7808,-141.43078 67.1801,-218.43005 32.5618,62.58619 76.5555,121.15147 135.1667,163.34178 34.5781,24.98008 75.5475,42.26801 118.7145,46.83281 -9.4157,19.05557 -21.3315,38.01401 -39.437,50.4652 -7.8028,5.71084 -17.8032,6.44898 -27.239,5.86624 10.5851,15.83108 21.4928,31.44849 32.3601,47.10475 33.328,-32.80821 66.3132,-65.92722 99.6614,-98.69658 -9.6778,-73.77477 -19.6581,-147.5107 -29.0537,-221.30489 -20.4444,4.48708 -42.1791,6.70149 -62.5428,0.77698 -16.0894,-4.40939 -29.6988,-16.35555 -35.6063,-31.44849 -7.7825,-18.23974 -6.7946,-38.42193 -4.7986,-57.6329 5.4438,8.68282 11.1094,18.00664 20.8678,22.72683 13.428,7.12884 29.9206,3.45758 42.4412,-3.72953 24.2752,-14.23827 42.0986,-36.16868 59.0146,-57.7106 47.9454,-60.27465 96.0118,-120.452176 143.8969,-180.765675 m 0.8065,318.389235 c 3.8106,22.41602 6.4115,45.04573 10.6456,67.36464 -0.2218,2.38923 -0.2823,4.81731 -0.1613,7.24539 6.7139,0.11654 13.4682,0.29137 20.2225,0 12.5409,1.26259 25.1623,0.21367 37.7435,0.75756 0.2822,-9.80945 0.7056,-19.87141 -2.5203,-29.31178 -7.9237,-27.27219 -35.949,-48.73642 -65.93,-46.05581 m -60.7687,72.37619 c 2.5606,1.82591 6.0487,0.79641 9.073,1.14605 17.6016,0.15541 35.2031,0.67986 52.8248,0.93239 -3.0244,-24.45562 -6.6737,-48.81411 -10.7263,-73.13376 -32.9449,6.15761 -54.8813,39.76223 -51.1715,71.05532 m 1.734,10.48931 c 6.6736,29.29235 36.3322,52.56306 67.9463,49.47455 -1.6533,-16.27785 -4.7381,-32.38087 -6.5325,-48.63929 -20.4645,-0.3108 -40.9492,-0.99066 -61.4138,-0.83526 m 71.4545,1.35972 c 1.9961,15.57856 3.7502,31.21539 6.5325,46.71625 22.8235,-5.86624 41.4936,-24.14482 47.2197,-46.23063 -17.904,-0.77699 -35.8482,-0.25252 -53.7522,-0.48562 m 540.3041,256.24981 c 6.3914,19.03615 0.8267,38.96583 1.6735,58.46817 14.557,-0.95182 29.094,-2.56406 43.7115,-3.03025 -1.2299,-16.60807 -5.0607,-34.47873 -17.5209,-46.81338 -7.1979,-7.28423 -17.9846,-8.62454 -27.8641,-8.62454 m -562.0791,39.27662 c 13.7908,2.19499 26.9365,6.8569 40.425,10.29506 0.1008,-15.81165 -0.6251,-31.68158 1.371,-47.41553 -19.1742,5.26407 -33.5497,20.12391 -41.796,37.12047 m 51.6754,-37.47012 c -1.7138,16.62749 -2.8832,33.50749 -1.0887,50.15441 12.2585,4.64249 25.7469,5.63314 38.7313,7.40079 -2.9436,-14.33538 -7.097,-28.78732 -15.2425,-41.25793 -5.1817,-7.82813 -12.9642,-14.02459 -22.4001,-16.29727 m 486.7536,7.96409 c -12.9844,14.47136 -16.9966,33.79887 -21.5734,51.86379 12.1779,-0.29137 24.3356,-1.24318 36.4732,-2.29211 -1.5525,-19.07499 7.7422,-39.41258 -1.8549,-57.43865 -4.9801,1.51512 -9.7585,3.8655 -13.0449,7.86697 m -542.3808,38.28597 c -9.3351,25.4657 -12.2989,52.56306 -13.1658,79.40791 21.15,0.33023 42.3,0.60217 63.4702,0.62159 -0.8065,-21.96927 -3.8308,-43.78313 -5.3228,-65.71354 0.3428,-3.45759 -3.9921,-3.67126 -6.2906,-4.62307 -12.7424,-3.74895 -25.5856,-7.32309 -38.691,-9.69289 m 55.1433,14.80157 c 1.0283,21.77502 3.8107,43.45292 5.0607,65.22793 12.8029,0.11655 25.6462,-0.0583 38.4694,-0.0195 0.02,-19.67716 -1.3913,-39.31546 -3.4478,-58.87607 -13.4885,-1.26261 -26.9971,-2.836 -40.0823,-6.33244 m 516.9766,4.83674 c -1.1291,-0.0583 -3.3671,-0.21367 -4.476,-0.29137 -0.2419,18.49226 -0.061,36.96509 -0.1008,55.45734 13.6699,-0.13598 27.3399,-0.54389 40.9896,-1.39857 l -0.3831,-1.59283 1.5324,0.0583 c 1.7541,-18.31743 3.4678,-36.77084 2.1573,-55.16598 -13.2868,0.71872 -26.5132,1.8065 -39.7194,2.93313 m -52.8045,3.22449 c -2.2985,17.59872 -4.3147,35.27514 -4.2341,53.02925 2.7219,-0.23309 5.4841,-0.56331 8.2463,-1.01007 11.3916,1.22375 22.8437,-0.25252 34.2756,0.0971 0.3024,-18.08434 -0.6452,-36.14926 -0.3428,-54.21416 -8.8511,0.52447 -17.7426,0.93238 -26.493,2.27268 -3.8106,-0.52446 -7.6616,-0.25252 -11.452,-0.17482 m -929.8765,12.83968 c -1.3508,14.39366 -1.8952,28.88444 -1.371,43.33637 1.9154,-0.97123 3.972,-1.88419 5.968,-2.81657 10.0811,-5.01156 20.0614,-10.31449 29.5376,-16.37497 -6.4721,-9.6152 -16.0692,-16.78289 -26.5738,-21.93042 -2.5404,-0.75755 -5.0607,-1.51512 -7.5608,-2.21441 m -43.1468,63.75166 c 10.5044,-5.38062 20.9484,-10.83895 31.7553,-15.65626 -0.061,-14.16056 0.04,-28.34055 -0.04,-42.5011 -18.5894,14.14113 -26.4325,36.75142 -31.7149,58.15736 M 2342.91,817.6708 c -1.5928,6.04107 -1.2299,12.33465 -1.2299,18.53111 0.121,15.50086 -0.061,31.00172 0.121,46.48316 6.6736,0.42734 13.3473,1.14605 20.0815,1.14605 6.472,1.49569 13.2062,2.05901 19.9,2.09786 6.6737,0.85469 13.428,1.35972 20.1823,1.92305 0.081,-11.07206 0.625,-22.26064 -1.7138,-33.13844 -0.4839,-20.37644 -7.339,-40.34497 -17.1378,-58.27391 -12.8433,8.00295 -26.1503,15.34546 -40.2033,21.23112 m 925.7029,-4.04032 c -0.8065,13.20876 0.2822,26.43693 -0.02,39.64568 14.3151,0 28.6503,0.0388 42.9856,0.0195 -0.1613,-13.3253 -0.1412,-26.63118 0,-39.93705 -14.3353,0.27194 -28.6504,0.48561 -42.9654,0.27194 m 52.8851,-0.29136 c -0.2621,13.34472 -0.2822,26.70887 0,40.0536 10.8069,-0.17483 21.5936,-0.0388 32.4208,-0.19425 2.6614,-13.7138 5.9075,-27.31104 7.7825,-41.16081 -13.4279,0.13597 -26.8156,0.60216 -40.2033,1.30146 m -580.8097,4.09859 c 0.1209,11.96557 1.25,23.89231 1.9557,35.83845 21.1299,-2.03959 42.1186,-5.30292 63.2082,-7.88639 -0.1412,-8.85764 -0.5847,-17.7347 -0.6049,-26.59234 -21.4928,-1.55396 -43.0662,-0.66044 -64.559,-1.35972 m 73.6118,0.95181 c 0.4637,8.50799 0.9476,17.01598 0.9073,25.5434 12.198,-1.53455 24.3759,-3.2245 36.5942,-4.79789 0.1209,-6.93459 0.3428,-13.84977 0.7259,-20.74551 -12.7627,-0.0583 -25.5052,-0.0388 -38.2274,0 m -514.4563,21.50307 c -1.8953,0.93238 -2.9639,2.40865 -3.1655,4.44824 -2.1775,11.55767 -3.3267,23.29014 -4.355,35.0032 13.2263,0.48561 26.4123,1.5734 39.6588,2.23383 -0.2822,-19.54118 -0.061,-39.08237 -0.1008,-58.60413 -11.0891,4.87559 -21.8154,10.52816 -32.0375,16.91886 m -8.6092,49.33858 c 0.2621,15.20949 -0.363,30.41898 0.04,45.62848 -0.5444,3.71009 3.5082,5.88566 6.8551,6.19645 10.1818,1.39857 20.4645,-0.29137 30.5657,-1.67052 l 2.3388,0.2331 c 1.1291,-16.0836 0.1008,-32.22547 0.625,-48.3285 -13.4279,-1.28202 -26.9365,-1.92304 -40.4249,-2.05901 m 49.8406,2.7583 c 0.2218,15.09295 0.121,30.16646 0.061,45.2594 19.759,-4.19572 39.5581,-8.35259 58.9339,-14.08286 1.0081,-8.74108 1.6735,-17.5016 1.7743,-26.28153 -20.3032,-1.16548 -40.5057,-3.47702 -60.7687,-4.89501 m 468.023,178.18196 c -12.9843,14.2578 -20.4443,32.206 -26.4929,50.0185 -12.2183,39.8593 -17.9241,81.428 -19.6984,122.8608 -1.0081,6.0799 -1.492,12.2375 -1.3307,18.4145 -0.6452,9.557 -1.0686,19.1333 -0.9073,28.7291 -0.5444,7.3231 -0.3629,14.685 -0.2823,22.047 17.8637,0.3884 35.7474,0.097 53.6514,0.1748 -0.8468,-3.5548 -1.6332,-7.1094 -2.4195,-10.6253 -7.6817,-58.3128 -7.1374,-118.2572 7.1777,-175.6376 3.4679,-14.5879 7.1979,-29.8362 17.0168,-41.8406 5.7462,-7.1289 15.3635,-11.5771 24.7995,-9.8678 16.4724,2.6223 28.9124,14.2577 41.1508,24.2614 -0.2823,2.3116 2.1775,5.5943 4.8389,4.7979 1.1493,-2.6029 -1.5121,-6.4685 -4.2945,-6.7986 0.8065,-2.5058 -1.6735,-4.6425 -2.6211,-6.721 -11.1496,-16.3943 -27.4003,-31.1765 -47.9254,-35.1197 -15.8272,-3.1274 -32.3198,3.7878 -42.663,15.3066 m 507.6617,12.9757 c 0.061,11.5576 -0.061,23.1153 0.081,34.673 13.0045,-1.4763 25.9083,-3.6713 38.9129,-5.167 0.1411,-9.8483 0.081,-19.6771 0.1815,-29.506 -13.0652,-0.078 -26.1302,-0.078 -39.1751,0 m 48.6916,0 c 0.1008,9.3432 0.02,18.7059 0.2419,28.0686 14.2748,-2.331 28.7108,-3.4576 43.1671,-4.3511 1.8145,-7.9641 3.9316,-15.8505 5.5445,-23.8535 -16.3313,0.1942 -32.6424,0 -48.9535,0.136 m -1031.1306,22.416 c 2.984,13.7332 6.5729,27.3499 9.8593,41.0443 13.2062,-3.1079 26.7552,-4.6619 40.2235,-6.4878 -2.9437,-11.3441 -5.5244,-22.8046 -6.9963,-34.4011 -14.3554,-0.6216 -28.7311,-0.3884 -43.0865,-0.1554 m 52.7442,-0.059 c 1.5726,11.208 4.0324,22.2801 6.593,33.2938 11.5327,-0.9323 22.8638,-3.205 34.336,-4.6036 0.746,-0.3884 2.2178,-1.1654 2.9638,-1.5345 0.9073,-8.7022 0.7259,-17.5599 0.081,-26.2621 -0.7662,-0.3496 -2.2783,-1.0683 -3.0243,-1.4374 -13.6296,0.8935 -27.2995,0.078 -40.9492,0.5438 m 978.6686,14.7045 c -0.2822,9.518 -0.3024,19.075 0.02,28.6125 11.1496,-0.272 22.3194,-0.6993 33.4892,-0.777 2.359,-10.567 4.9599,-21.0951 7.4197,-31.6427 -13.7304,0.3107 -27.3196,2.3115 -40.9291,3.8072 m -48.873,6.7792 c -0.1411,7.459 -0.1209,14.9375 -0.1209,22.416 13.0852,0.5051 26.1502,-0.3885 39.2355,-0.7964 -0.1613,-8.8771 -0.081,-17.7541 -0.121,-26.6118 -12.9845,1.8454 -25.9084,4.1957 -38.9936,4.9922 m -920.3408,21.018 c 3.2662,13.6943 7.5003,27.1556 11.7343,40.5974 4.1534,0.4857 8.327,1.0295 12.561,1.1266 3.4477,0.777 6.9559,1.321 10.5246,1.9814 0.1815,-12.3153 0,-24.6305 0.1412,-36.9457 -0.1613,-4.1374 0.5242,-8.6051 -1.8348,-12.2958 -10.8472,2.8554 -22.017,4.118 -33.1263,5.5361 m -50.0021,7.459 c 1.3509,8.8771 3.609,17.5988 5.968,26.301 15.1217,0.7963 30.0416,3.4575 45.0825,4.9144 -2.9638,-10.062 -6.351,-20.0268 -8.9721,-30.1664 -0.9476,-2.2728 -0.7863,-5.167 -2.7622,-6.7987 -13.2062,1.1266 -26.2914,3.4381 -39.3162,5.7497 m 970.1603,3.2439 c 0.1814,12.1987 0.02,24.4168 0.1411,36.6349 12.9844,1.9813 25.9688,4.1569 39.0339,5.9439 0.061,-14.2965 -0.1008,-28.593 0.081,-42.8701 -13.0853,-0.1943 -26.1705,0.2719 -39.2557,0.2913 m 48.9738,-0.8353 c -0.081,14.5686 -0.3428,29.1371 0.02,43.7055 5.5849,3.8072 13.4481,2.564 20.0814,3.5353 3.4276,-15.9865 7.5205,-31.8176 10.8674,-47.8234 -10.3432,0.019 -20.646,0.7187 -30.969,0.5826 m -1010.8273,33.8378 c 2.9438,12.1404 5.6656,24.3391 8.4077,36.5571 15.0207,-2.0589 29.981,-4.4094 44.9211,-6.954 -2.4396,-8.2943 -4.8792,-16.5886 -7.7019,-24.7664 -15.1619,-2.0396 -30.3238,-4.1568 -45.6269,-4.8367 m 57.2201,6.8374 c 0.081,0.9519 0.2419,2.8943 0.3226,3.8656 0.9879,2.3115 2.0364,4.623 3.1251,6.9734 0.2823,3.5158 0.5041,7.6922 3.3671,10.2951 4.1332,-0.3303 8.2664,-1.049 12.4198,-1.5734 0.121,-5.6331 0.1008,-11.2469 0.1412,-16.8412 -6.4922,-0.8352 -12.9441,-1.7871 -19.3758,-2.7195 M 2093.827,1327.742 c 1.371,11.4217 2.9034,22.8434 4.6373,34.2262 37.5822,-14.5879 75.8902,-27.3887 114.299,-39.7817 -0.5242,-6.8762 -0.9678,-13.7526 -1.2904,-20.6289 -40.2435,3.5936 -79.1967,14.7239 -117.6459,26.1844 m 9.1738,70.8223 c 1.6129,15.7727 4.1937,31.4484 5.8873,47.2212 25.5253,-13.6361 51.6352,-26.6506 79.4186,-35.5082 7.6414,-16.9966 15.5248,-33.8766 23.0452,-50.9314 -37.7031,8.4691 -72.9666,24.4944 -108.3511,39.2184 m -140.1065,65.3445 c 4.1937,22.3577 8.468,44.7348 13.5892,66.9178 26.9568,-19.6966 54.6797,-38.4413 83.068,-56.176 8.7302,-6.1188 18.8314,-10.3728 27.0978,-17.0355 -1.1895,-16.4332 -3.6896,-32.7499 -5.1615,-49.1443 -40.2637,16.9771 -79.237,36.6543 -118.5935,55.438 M 336.98158,1622.5499 c 6.593,8.0612 12.54083,16.6858 20.02096,24.0477 4.23405,-9.4792 8.34712,-18.9973 12.31905,-28.5736 -10.80689,1.3209 -21.59362,2.8166 -32.34001,4.5259 m -88.77377,22.9794 c 8.81085,6.0799 17.62169,12.1792 26.53334,18.1426 1.53232,-10.1785 2.47994,-20.4347 3.12513,-30.6715 -10.00041,3.8849 -20.10163,7.6533 -29.65847,12.5289 m 1935.46149,-6.4295 c 0.4234,5.9827 1.6533,12.0432 0.4436,18.026 -0.4839,2.7583 -3.4276,5.3029 -6.3914,4.118 -7.46,-0.9518 -10.0407,-8.3914 -12.3594,-14.1605 -7.9035,6.2741 -14.1336,14.2576 -18.2668,23.2901 12.1375,3.5741 25.9284,4.254 37.5821,-1.2821 13.0247,-6.2547 23.4888,-17.1713 29.3762,-29.9527 -10.0811,-1.5928 -20.3436,-1.7094 -30.3843,-0.038 m -1868.74507,3.3021 c -2.58075,9.6346 -5.28248,19.2498 -7.62128,28.9621 9.19392,-2.4281 18.42817,-4.6425 27.52128,-7.4008 -6.45187,-7.3424 -13.00456,-14.6073 -19.9,-21.5613 m 78.57173,5.3612 c -3.79047,6.1964 -7.25835,12.5872 -10.86738,18.8808 -3.60901,-1.3209 -7.21803,-2.7 -10.82705,-4.021 -0.68551,4.1569 -1.29037,8.3526 -1.9154,12.5872 -3.99209,-1.8065 -8.02451,-3.5741 -12.05694,-5.264 -1.3307,4.3122 -2.60091,8.6827 -3.85096,13.0727 -3.22593,-1.9813 -6.39139,-4.0403 -9.75846,-5.7496 -3.32675,3.2827 -5.52441,7.4202 -8.44792,11.0331 -4.19372,-2.0008 -6.95593,-5.8857 -10.26251,-8.877 -2.11702,5.5166 -4.09292,11.0914 -6.41156,16.5498 -3.97193,-3.749 -8.00435,-7.4397 -12.21823,-10.9167 -0.92746,4.4676 -1.7541,8.9936 -2.64124,13.5001 -5.44376,-2.7777 -10.78672,-5.7885 -16.51276,-8.0223 -2.984,2.2726 -4.85907,5.536 -7.11723,8.4302 -1.47183,-4.0791 -2.98399,-8.1194 -4.61712,-12.1015 -3.20578,3.9821 -6.18977,8.1389 -9.07295,12.3929 -5.14133,-2.0979 -10.18186,-4.39 -15.38368,-6.2936 10.26251,9.5958 21.53312,18.1233 32.27953,27.2334 0.50405,-0.9519 1.49199,-2.8554 1.99604,-3.8073 3.10497,1.2626 6.2301,2.5058 9.35522,3.7878 1.22989,-2.4863 2.5001,-4.9144 3.81065,-7.3036 5.28247,2.7971 10.68591,5.4389 16.3313,7.595 -0.40324,-3.3216 -0.82664,-6.5849 -1.22989,-9.8482 5.06069,2.0007 10.12138,4.0014 15.30304,5.7302 1.1694,-3.4382 2.3388,-6.8375 3.5082,-10.2174 4.69778,2.6224 9.3149,5.4389 13.99251,8.1196 1.0686,-4.5066 2.17751,-8.9742 3.28643,-13.4419 3.46788,2.2921 6.93576,4.5842 10.50446,6.7792 0.28226,-5.0893 0.44356,-10.1397 0.78632,-15.1707 2.29848,2.0784 4.53647,4.2152 6.81478,6.3907 2.13719,-4.8366 4.21388,-9.6929 6.29059,-14.5296 2.21783,1.923 4.39533,3.8655 6.63332,5.8079 0.1613,-5.4194 0.14114,-10.8 0.0403,-16.1612 2.72188,1.1849 5.38329,2.5446 8.14549,3.7295 1.55248,-9.2655 5.02036,-18.3368 5.26231,-27.7189 2.66139,-0.6216 3.42756,-4.6037 1.9154,-6.5073 -2.43962,-1.282 -3.77031,2.5835 -3.06464,4.3317 m 1776.92687,-2.8554 c 1.5525,3.2051 2.984,6.546 4.8389,9.6734 0.625,-4.3122 1.3105,-8.6245 1.9154,-12.9174 -2.2783,1.049 -4.5365,2.1368 -6.7543,3.244 m -131.0738,27.7772 c 11.7343,10.4505 26.5131,19.1916 43.0259,19.0362 11.0891,0.3884 21.4726,-4.0598 30.6263,-9.6929 -6.2302,-7.9835 -15.2023,-13.4419 -24.7793,-16.9577 -0.6452,5.2252 0.1613,11.6547 -4.6575,15.3842 -1.9557,1.7872 -5.7663,4.0986 -8.0043,1.6123 -6.1091,-4.6814 -4.0728,-13.2087 -7.6011,-18.9779 -10.2222,0.7382 -19.9605,4.4094 -28.61,9.5958 m 34.2352,-8.9354 c 1.4113,3.6325 3.1251,7.226 5.3228,10.5477 0.7863,-3.0109 1.5928,-5.9829 2.3791,-8.9354 -2.5807,-0.5828 -5.1413,-1.1266 -7.7019,-1.6123 m 1287.7538,5.0505 c 2.0364,6.4878 4.98,13.1893 3.6695,20.1239 -0.746,2.8554 -2.7824,6.4296 -6.4115,5.4584 -8.5084,-0.3886 -13.4684,-7.77 -16.0693,-14.7045 -8.2866,8.1778 -14.5772,18.1426 -17.6822,29.2341 12.1981,2.1366 25.3036,1.8841 36.6145,-3.5353 17.42,-7.867 28.8721,-24.1642 35.4046,-41.0831 -12.0368,-0.6799 -24.2348,0.2525 -35.5256,4.5065 m -13.3473,7.595 c 3.2058,3.7878 6.7745,7.3037 10.4641,10.7224 -1.2097,-4.623 -2.4396,-9.2267 -3.609,-13.8109 -2.3186,0.9907 -4.6171,2.0396 -6.8551,3.0885 m -106.093,34.6147 c 1.1694,4.021 2.5202,8.0613 4.5768,11.8102 1.2097,-3.9821 2.3791,-7.9446 3.4679,-11.9461 -2.7219,0.019 -5.4035,0.059 -8.0447,0.1359 m -39.9009,14.9181 c 14.1135,10.4505 31.5538,17.8707 49.6997,16.4527 13.4682,-0.2525 25.505,-7.0705 35.4046,-15.3649 -7.8431,-8.7216 -19.154,-13.4418 -30.6061,-15.8893 1.492,8.1389 0.8065,18.9584 -8.7705,22.0858 -10.0004,-2.8166 -9.8794,-14.4714 -14.2949,-21.6196 -11.5126,2.2726 -21.9969,7.7503 -31.4328,14.3353 m -1554.3976,159.0875 c 6.4317,13.9469 18.2668,25.9902 33.207,31.5068 10.7463,4.0792 22.7226,3.1468 33.5295,-0.2331 -3.8711,-8.8771 -9.8794,-16.7246 -17.4604,-22.9599 -2.9436,6.5849 -8.3874,16.3555 -17.3394,13.4807 -4.7985,-6.3907 -1.9758,-14.5102 -1.0484,-21.5808 -10.1818,-1.923 -20.646,-1.6317 -30.8883,-0.2137 m 35.0417,3.3022 c 0.02,3.1468 0.1008,6.3324 0.2419,9.5376 2.2985,-2.0785 4.597,-4.1376 6.8753,-6.2354 -2.3993,-1.146 -4.7784,-2.2338 -7.1172,-3.3022 m 112.1417,8.6634 c -1.0283,7.7504 -2.4195,16.1225 -9.0932,21.4254 -3.0041,-2.2144 -6.5728,-3.9821 -8.5285,-7.1871 -1.6331,-3.9044 -1.6735,-8.1778 -2.117,-12.257 -7.2382,3.3604 -14.5369,6.954 -20.3436,12.4318 -1.4718,1.4568 -4.5969,3.613 -2.0767,5.7303 7.7221,5.7885 17.5814,8.4885 27.2592,8.9741 16.9361,0.1166 32.6021,-8.3137 44.3162,-19.5994 -9.0326,-5.0893 -19.0935,-8.1972 -29.4164,-9.5181 m -13.7708,2.059 c 0.988,2.8748 2.0163,5.7691 3.1655,8.6828 1.4113,-3.0885 2.7017,-6.1964 4.0526,-9.2655 -1.7945,0.1359 -5.4035,0.4274 -7.2181,0.5827 z"
           style="fill:url(#linearGradient6020);fill-opacity:1;stroke:#000000;stroke-width:0.18562961"
           inkscape:connector-curvature="0" />
        <rect
           y="-179.51329"
           x="-62.629459"
           height="18.182745"
           width="18.182745"
           id="rect6018"
           style="fill:#ffffff;fill-opacity:1;stroke:#000000;stroke-width:5;stroke-linecap:butt;stroke-linejoin:miter;stroke-miterlimit:4;stroke-dasharray:none;stroke-opacity:1" />
      </g>
    </clipPath>
    <linearGradient
       inkscape:collect="always"
       xlink:href="#linearGradient5205"
       id="linearGradient6020"
       gradientUnits="userSpaceOnUse"
       gradientTransform="matrix(2.0162107,0,0,1.9424638,-2738.62,-982.23014)"
       x1="2314.7249"
       y1="512.88599"
       x2="2300.8877"
       y2="1642.2366" />
  </defs>
  <sodipodi:namedview
     id="base"
     pagecolor="#000000"
     bordercolor="#666666"
     borderopacity="1.0"
     inkscape:pageopacity="1"
     inkscape:pageshadow="2"
     inkscape:zoom="0.49497475"
     inkscape:cx="1688.975"
     inkscape:cy="969.74644"
     inkscape:document-units="px"
     inkscape:current-layer="layer2"
     showgrid="false"
     units="px"
     inkscape:window-width="2160"
     inkscape:window-height="1346"
     inkscape:window-x="-11"
     inkscape:window-y="-11"
     inkscape:window-maximized="1"
     inkscape:pagecheckerboard="1" />
  <metadata
     id="metadata7">
    <rdf:RDF>
      <cc:Work
         rdf:about="">
        <dc:format>image/svg+xml</dc:format>
        <dc:type
           rdf:resource="http://purl.org/dc/dcmitype/StillImage" />
      </cc:Work>
    </rdf:RDF>
  </metadata>
  <g
     inkscape:groupmode="layer"
     id="layer3"
     inkscape:label="spooky fill"
     sodipodi:insensitive="true">
    <rect
       style="fill:#ffffff;fill-opacity:1;stroke:#000000;stroke-width:5;stroke-linecap:butt;stroke-linejoin:miter;stroke-miterlimit:4;stroke-dasharray:none;stroke-opacity:1"
       id="rect5214"
       width="212.13203"
       height="105.05586"
       x="1628.3658"
       y="1852.9136" />
    <rect
       style="fill:#ffffff;fill-opacity:1;stroke:#000000;stroke-width:5;stroke-linecap:butt;stroke-linejoin:miter;stroke-miterlimit:4;stroke-dasharray:none;stroke-opacity:1"
       id="rect5214-0"
       width="212.13203"
       height="105.05586"
       x="2027.3761"
       y="1608.4567" />
    <rect
       style="fill:#ffffff;fill-opacity:1;stroke:#000000;stroke-width:5;stroke-linecap:butt;stroke-linejoin:miter;stroke-miterlimit:4;stroke-dasharray:none;stroke-opacity:1"
       id="rect5214-04"
       width="212.13203"
       height="105.05586"
       x="3193.0923"
       y="1648.8628" />
    <rect
       style="fill:#a8a8a8;fill-opacity:1;stroke:#000000;stroke-width:5;stroke-linecap:butt;stroke-linejoin:miter;stroke-miterlimit:4;stroke-dasharray:none;stroke-opacity:1"
       id="rect5237"
       width="195.96959"
       height="250.51784"
       x="2244.5588"
       y="721.54279" />
    <rect
       style="fill:#a8a8a8;fill-opacity:1;stroke:#000000;stroke-width:5;stroke-linecap:butt;stroke-linejoin:miter;stroke-miterlimit:4;stroke-dasharray:none;stroke-opacity:1"
       id="rect5237-2"
       width="195.96959"
       height="250.51784"
       x="2704.1785"
       y="654.87268" />
    <rect
       style="fill:#a8a8a8;fill-opacity:1;stroke:#000000;stroke-width:5;stroke-linecap:butt;stroke-linejoin:miter;stroke-miterlimit:4;stroke-dasharray:none;stroke-opacity:1"
       id="rect5237-4"
       width="195.96959"
       height="250.51784"
       x="2671.8535"
       y="289.19748" />
    <rect
       style="fill:#a8a8a8;fill-opacity:1;stroke:#000000;stroke-width:5;stroke-linecap:butt;stroke-linejoin:miter;stroke-miterlimit:4;stroke-dasharray:none;stroke-opacity:1"
       id="rect5237-5"
       width="195.96959"
       height="250.51784"
       x="3205.2141"
       y="652.85242" />
    <rect
       style="fill:#a8a8a8;fill-opacity:1;stroke:#000000;stroke-width:5;stroke-linecap:butt;stroke-linejoin:miter;stroke-miterlimit:4;stroke-dasharray:none;stroke-opacity:1"
       id="rect5237-7"
       width="195.96959"
       height="250.51784"
       x="3251.6809"
       y="1018.5276" />
    <rect
       style="fill:#a8a8a8;fill-opacity:1;stroke:#000000;stroke-width:5;stroke-linecap:butt;stroke-linejoin:miter;stroke-miterlimit:4;stroke-dasharray:none;stroke-opacity:1"
       id="rect5237-52"
       width="195.96959"
       height="250.51784"
       x="2314.2593"
       y="1048.8322" />
    <rect
       style="fill:#616161;fill-opacity:1;stroke:#000000;stroke-width:5.28720188;stroke-linecap:butt;stroke-linejoin:miter;stroke-miterlimit:4;stroke-dasharray:none;stroke-opacity:1"
       id="rect5237-9"
       width="195.68239"
       height="280.53522"
       x="2718.4641"
       y="1034.8336" />
  </g>
  <g
     inkscape:groupmode="layer"
     id="layer2"
     inkscape:label="spooky">
    <rect
       style="fill:url(#linearGradient5920);fill-opacity:1;stroke:#000000;stroke-width:5.89076424;stroke-linecap:butt;stroke-linejoin:miter;stroke-miterlimit:4;stroke-dasharray:none;stroke-opacity:1;filter:url(#filter5970)"
       id="rect5912"
       width="4352.8667"
       height="2728.5413"
       x="-120.77293"
       y="-233.61615"
       clip-path="url(#clipPath6012)" />
    <path
       inkscape:connector-curvature="0"
       style="fill:#ffffff;fill-opacity:1;stroke:#010101;stroke-width:0.34616983"
       d="m 1611.3226,333.12204 c 19.4398,-13.63832 41.1598,-24.28114 63.4594,-33.51432 -12.3672,29.2149 -16.0001,62.55303 -0.6183,91.45076 -14.2223,19.24165 -32.3094,37.21463 -37.4882,60.75571 -5.9131,16.81002 -1.3527,34.60679 8.2706,49.4433 -18.1644,4.26418 -36.4061,9.72656 -51.44,20.26365 -20.3287,13.63832 -31.1114,35.13541 -45.9907,53.14363 -17.7006,20.89799 -29.063,45.28485 -42.4351,68.50876 -20.2514,-6.55485 -39.8457,-14.7308 -60.329,-20.68655 -18.5508,-5.1452 -36.8312,3.06598 -52.1743,11.87626 -12.9856,-10.85426 -27.633,-23.15342 -46.4931,-22.83625 -16.1933,0.4229 -27.9809,11.84102 -37.4109,22.55433 -0.7729,-15.04797 -0.039,-34.0077 -15.459,-43.45232 -14.4542,-8.88076 -31.1114,0.10573 -45.411,4.44038 0.6957,-13.35638 2.1256,-28.96821 -9.4687,-39.08241 -16.3093,-16.31664 -42.3191,-15.04796 -64.3483,-16.35188 25.121,-22.80102 59.3241,-37.3556 94.6867,-39.85772 29.3336,-1.93826 58.5125,8.10546 80.503,25.69078 18.9374,11.27716 34.7056,29.95496 58.7831,31.6113 8.0001,1.09247 15.4977,-2.32592 22.8794,-4.7928 -1.8937,-19.34738 -15.3431,-36.01643 -15.4591,-55.75147 7.8455,3.38315 14.9953,8.7398 23.7297,10.3609 7.1111,-0.5991 14.145,-2.29068 21.2175,-3.80605 3.2078,-6.59009 6.4928,-13.14494 10.0871,-19.59407 11.3624,13.5326 13.1015,30.62455 16.9276,46.6945 12.5605,7.78829 25.2756,-3.20694 27.092,-14.76603 7.6909,-18.81876 7.1498,-39.11766 6.2223,-58.85269 14.0677,-48.91469 45.6815,-93.52996 90.6673,-123.4497 z"
       id="path4149" />
    <path
       inkscape:connector-curvature="0"
       style="fill:#ffffff;fill-opacity:1;stroke:#020101;stroke-width:0.0938"
       d="m 587.52601,329.89278 c 7.82,-1.45 16.82,-0.65 22.87,5.05 5.16,4.54 5.73,11.95 9.62,17.34 1.47,1.5 4.3,3.83 6.01,1.33 0.7,-3.12 1.09,-6.32 2.25,-9.32 1.32,1.49 2.13,3.83 4.25,4.4 2.01,0.68 3.87,-0.76 5.76,-1.28 -0.36,3.13 -1.18,6.18 -2.25,9.15 4.17,2.79 7.63,-2.28 9.66,-5.42 2.99,-6.2 8.86,-10.3 14.87,-13.27 8.2,-3.86 17.49,-4.67 26.43,-3.9 -4.68,3.94 -8.4,9.1 -9.15,15.32 -4.77,2.21 -10,4.35 -13.06,8.86 -1.48,2.04 -1.69,4.62 -2,7.04 -4.27,-1.35 -9.01,-2.1 -13.25,-0.29 -6.34,2.8 -12.75,5.6 -18.37,9.68 -1.26,0.57 -2.97,2.46 -4.12,0.79 -2.48,-2.57 -4.36,-5.67 -6.97,-8.1 -2.28,-2.16 -5.65,-1.88 -8.51,-2.29 -1.02,-3.01 -2.16,-6.49 -5.24,-7.96 -2.21,-0.7 -4.54,-0.08 -6.76,0.13 0.86,-2.82 2.91,-6.34 0.57,-8.98 -1.76,-1.4 -4.08,-1.68 -6.15,-2.27 1.07,-2.75 2.65,-5.81 1.29,-8.76 -1.66,-3.24 -4.99,-5.08 -7.75,-7.25 z"
       id="path4155" />
  </g>
  <g
     inkscape:label="Layer 1"
     inkscape:groupmode="layer"
     id="layer1"
     transform="translate(0,1107.6379)"
     style="display:inline"
     sodipodi:insensitive="true">
    <text
       xml:space="preserve"
       style="font-style:normal;font-weight:normal;line-height:0%;font-family:sans-serif;letter-spacing:0px;word-spacing:0px;fill:#ffffff;fill-opacity:1;stroke:none;stroke-width:1px;stroke-linecap:butt;stroke-linejoin:miter;stroke-opacity:1"
       x="130.61555"
       y="21.579538"
       id="text4136"><tspan
         sodipodi:role="line"
         id="tspan4138"
         x="130.61555"
         y="21.579538"
         style="font-style:normal;font-variant:normal;font-weight:100;font-stretch:normal;font-size:312.228px;line-height:1.25;font-family:BlackChancery;-inkscape-font-specification:'BlackChancery Thin'">#Dinsdagavond</tspan></text>
  </g>
</svg>
