<?xml version="1.0" encoding="UTF-8"?>
<svg width="5cm" height="5cm" version="1.1" viewBox="0 0 100 100" xmlns="http://www.w3.org/2000/svg">
 <g transform="translate(-81.165 -115.71)">
  <g fill="#fff" stroke-width=".26458px" aria-label="T">
   <path d="m179.18 123.06q-5.8927 6.2791-12.558 8.7908-6.6656 2.5117-15.843 2.5117h-28.111q1.932 0 8.501 3.2845 6.6656 3.1879 12.751 11.399 6.086 8.1146 6.086 21.929 0 18.644-10.433 28.015-10.336 9.3704-25.696 9.3704-14.201 0-21.252-8.6942-6.9554-8.5976-6.9554-18.065 0-10.336 5.5063-17.388 5.6029-7.1486 16.229-7.1486 7.052 0 11.979 4.7335 5.0233 4.6369 5.0233 11.785 0 4.8301-3.1879 8.3078-3.1879 3.4777-6.6656 4.5403 1.8354-3.0913 2.8015-5.6995 0.96603-2.6082 0.96603-6.3758 0-7.1486-3.4777-10.819-3.4777-3.7675-8.984-3.7675-5.3131 0-10.723 5.2165-5.4097 5.1199-5.4097 14.201 0 10.916 6.9554 18.451t17.871 7.535q11.496 0 17.099-9.5636 5.6029-9.5636 5.6029-21.929 0-19.61-8.2112-29.367-8.2112-9.7568-20.769-9.7568-10.336 0-15.456 4.5403-5.1199 4.5403-9.6602 14.007 0-13.331 9.8534-20.769 9.95-7.4384 23.281-7.4384h41.539q1.449 0 2.3184 0 0.86943 0 1.2558-0.0966 2.8981 0 8.1146-0.48302 5.3131-0.57961 9.6602-1.2558z" stroke-width=".53668px"/>
  </g>
 </g>
</svg>
