<svg width="49.604mm" height="44.317mm" version="1.1" viewBox="0 0 49.604 44.317" xmlns="http://www.w3.org/2000/svg">
 <g transform="translate(-81.165 -115.71)">
  <g fill="#fff" stroke-width=".26458px" aria-label="T">
   <path d="m129.64 116.85q-2.9051 3.0956-6.1912 4.3339-3.2861 1.2382-7.8105 1.2382h-13.859q.9525 0 4.191 1.6192 3.2861 1.5716 6.2865 5.6198 3.0004 4.0005 3.0004 10.811 0 9.1916-5.1435 13.811-5.0959 4.6196-12.668 4.6196-7.0009 0-10.478-4.2862-3.429-4.2386-3.429-8.9059 0-5.0959 2.7146-8.5725 2.7622-3.5242 8.001-3.5242 3.4766 0 5.9055 2.3336 2.4765 2.286 2.4765 5.8102 0 2.3812-1.5716 4.0958-1.5716 1.7145-3.2861 2.2384.90488-1.524 1.3811-2.8099.47625-1.2859.47625-3.1432 0-3.5242-1.7145-5.334-1.7145-1.8574-4.4291-1.8574-2.6194 0-5.2864 2.5718-2.667 2.5241-2.667 7.0009 0 5.3816 3.429 9.0964t8.8106 3.7148q5.6674 0 8.4296-4.7149 2.7622-4.7149 2.7622-10.811 0-9.6679-4.0481-14.478-4.0481-4.8101-10.239-4.8101-5.0959 0-7.62 2.2384-2.5241 2.2384-4.7625 6.9056 0-6.5722 4.8578-10.239 4.9054-3.6671 11.478-3.6671h20.479q.71438 0 1.143 0 .42863 0 .61913-.0476 1.4288 0 4.0005-.23813 2.6194-.28575 4.7625-.61912z"/>
  </g>
 </g>
</svg>
